<svg id="Vrstva_1" data-name="Vrstva 1" xmlns="http://www.w3.org/2000/svg" viewBox="0 0 314.88 83.58"><defs><style>.cls-1{fill:#ae0f0a;}.cls-2{fill:#004994;}</style></defs><path class="cls-1" d="M87.17,18.24C85,14.7,81.24,11.5,76,8.12l-.92-.59C56.64-4.24,50.71.18,45.69,5.17c0,0,0,0,0,0l0,0A55,55,0,0,0,33.22,30.24C33,31.42,35,23.45,45.68,23.45c14,0,21.11,20.72-.73,59.9v.19h0c.38-.36.71-.69,1-1,1.13-1.1,2.57-2.63,2.78-2.89h0l.92-.94a3.7,3.7,0,0,0,.28-.28C57.7,70.6,64.2,63.79,69.53,57.82c18.16-20.37,22.79-31,17.64-39.58"/><path class="cls-2" d="M44.15,83.47v.06c-.39-.37-4.82-5-4.91-5.09C31.49,70.6,25,63.79,19.66,57.82,1.5,37.45-3.13,26.82,2,18.24,4.15,14.7,8,11.5,13.15,8.12l.92-.59C32.55-4.24,38.48.18,43.5,5.17c-5.6,6.08-13,18.47-13.57,34.11l.05.13c-.54,8.59,2.16,20.64,9.84,36.1.79,1.61,3.94,7.12,4.32,7.82Z"/><polygon class="cls-2" points="99.5 43.11 93.34 43.11 93.34 48.05 98.46 48.05 98.46 49.53 93.34 49.53 93.34 56.69 91.42 56.69 91.42 41.62 99.81 41.62 99.5 43.11"/><path class="cls-2" d="M105.83,43.2l-2.51,7.38h5Zm4.43,13.49-1.51-4.64h-6l-1.53,4.64H99.34l5.32-15.07h2.49l5.28,15.07Z"/><path class="cls-2" d="M118.93,48.69l6.37,8h-2.44l-6.09-8,6.14-7.09h2.44Zm-4.18-7.07h1.93V56.69h-1.93Z"/><path class="cls-2" d="M136.81,55.79A6.31,6.31,0,0,1,132.62,57c-2.46,0-3.85-.69-4.71-2.18a4.85,4.85,0,0,1-.47-2.35V41.62h1.88V51.77a6.5,6.5,0,0,0,.28,2.17c.3.66,1.16,1.48,3.12,1.48a3.53,3.53,0,0,0,2.81-1,3.4,3.4,0,0,0,.6-2.35V41.62H138V52.34c0,1.83-.26,2.68-1.21,3.45"/><polygon class="cls-2" points="150.15 56.69 142.2 56.69 142.2 41.62 144.1 41.62 144.1 55.18 150.4 55.18 150.15 56.69"/><polygon class="cls-2" points="159.79 43.13 155.47 43.13 155.47 56.69 153.63 56.69 153.63 43.13 149.35 43.13 149.35 41.62 159.91 41.62 159.79 43.13"/><path class="cls-2" d="M170.25,56.69l-5.11-9.23c-1-1.82-1.82-3.62-1.82-3.62s.19,2.15.21,4.1l.09,8.75h-2V41.62h2.21l5.3,9.62a30.08,30.08,0,0,1,1.48,3.17s-.18-2.42-.2-4.6l-.07-8.19h1.88V56.69Z"/><path class="cls-2" d="M176.55,41.62h1.86V56.69h-1.86Zm-.05-.86-.6-1,4.81-2.86,1,1.69Z"/><path class="cls-2" d="M196.77,56.69l-5.12-9.23c-1-1.82-1.81-3.62-1.81-3.62s.19,2.15.21,4.1l.09,8.75h-2V41.62h2.21l5.29,9.62a29,29,0,0,1,1.49,3.17S197,52,197,49.81l-.07-8.19h1.89V56.69Z"/><polygon class="cls-2" points="203.06 56.69 203.06 41.62 211.78 41.62 211.52 43.11 204.99 43.11 204.99 48.06 210.46 48.06 210.46 49.62 204.99 49.62 204.99 55.13 212.01 55.13 212.01 56.69 203.06 56.69"/><path class="cls-2" d="M228,56.69l-.92-11c-.07-1-.12-2.57-.12-2.57s-.33,1.38-.63,2.37l-3.41,11.25h-1.63L218.15,46c-.51-1.69-.79-3-.79-3s-.12,2-.19,2.93l-.88,10.72h-1.84l1.4-15.07h2.79l2.9,9.84a23.25,23.25,0,0,1,.63,2.64,24.74,24.74,0,0,1,.58-2.46l3-10h2.81l1.37,15.07Z"/><path class="cls-2" d="M242.85,44.87a3.77,3.77,0,0,0-3.55-2.07,3.86,3.86,0,0,0-3.42,1.76,8.31,8.31,0,0,0-.81,4.15,11,11,0,0,0,1,5.26,4.26,4.26,0,0,0,3.39,1.62,3.65,3.65,0,0,0,3-1.29c.79-.95,1.16-2.16,1.16-4.64a10.76,10.76,0,0,0-.77-4.79m.59,10.66A5.78,5.78,0,0,1,239.39,57a6,6,0,0,1-4.53-1.91,8.62,8.62,0,0,1-1.91-6c0-4.79,2.42-7.74,6.35-7.74a5.86,5.86,0,0,1,5,2.46,9.25,9.25,0,0,1,1.44,5.59c0,2.9-.7,4.72-2.32,6.13"/><path class="cls-2" d="M255.22,56.93a6.34,6.34,0,0,1-4.65-2,8.22,8.22,0,0,1-1.91-5.73c0-4.49,2.84-7.78,6.7-7.78a6.82,6.82,0,0,1,4,1.23l-1,1.16a5,5,0,0,0-3-.94,4.05,4.05,0,0,0-3.92,2.59,9.23,9.23,0,0,0-.68,4,7.62,7.62,0,0,0,.51,3.19,4.51,4.51,0,0,0,4.28,2.81,5.17,5.17,0,0,0,3.12-1l1,1.21a8.57,8.57,0,0,1-4.44,1.23"/><path class="cls-2" d="M271.16,56.69l-5.11-9.23c-1-1.82-1.81-3.62-1.81-3.62s.18,2.15.2,4.1l.1,8.75h-2V41.62h2.21l5.3,9.62a29,29,0,0,1,1.49,3.17s-.19-2.42-.21-4.6l-.07-8.19h1.88V56.69Z"/><rect class="cls-2" x="277.46" y="41.62" width="1.86" height="15.08"/><path class="cls-2" d="M289.48,56.93a6.34,6.34,0,0,1-4.65-2,8.22,8.22,0,0,1-1.91-5.73c0-4.49,2.84-7.78,6.7-7.78a6.84,6.84,0,0,1,4,1.23l-1,1.16a4.94,4.94,0,0,0-3-.94,4.08,4.08,0,0,0-3.93,2.59,9.4,9.4,0,0,0-.67,4,7.62,7.62,0,0,0,.51,3.19,4.5,4.5,0,0,0,4.28,2.81,5.14,5.14,0,0,0,3.11-1l1,1.21a8.5,8.5,0,0,1-4.43,1.23"/><polygon class="cls-2" points="296.59 56.69 296.59 41.62 305.3 41.62 305.05 43.11 298.52 43.11 298.52 48.06 303.98 48.06 303.98 49.62 298.52 49.62 298.52 55.13 305.54 55.13 305.54 56.69 296.59 56.69"/><path class="cls-2" d="M100.62,69.31a3.77,3.77,0,0,0-3.56-2.06A3.86,3.86,0,0,0,93.65,69a8.32,8.32,0,0,0-.82,4.16,11,11,0,0,0,1,5.25A4.22,4.22,0,0,0,97.25,80a3.65,3.65,0,0,0,3-1.3c.79-.95,1.16-2.15,1.16-4.64a10.79,10.79,0,0,0-.77-4.79M101.2,80a5.74,5.74,0,0,1-4,1.45,5.94,5.94,0,0,1-4.53-1.91,8.6,8.6,0,0,1-1.91-6c0-4.79,2.42-7.73,6.34-7.73a5.81,5.81,0,0,1,5,2.46,9.2,9.2,0,0,1,1.45,5.58c0,2.9-.7,4.72-2.33,6.13"/><polygon class="cls-2" points="115.08 81.14 107.13 81.14 107.13 66.06 109.03 66.06 109.03 79.62 115.33 79.62 115.08 81.14"/><path class="cls-2" d="M126,69.31a3.76,3.76,0,0,0-3.55-2.06A3.88,3.88,0,0,0,119.07,69a8.33,8.33,0,0,0-.81,4.16,11,11,0,0,0,1,5.25A4.23,4.23,0,0,0,122.67,80a3.63,3.63,0,0,0,3-1.3c.79-.95,1.16-2.15,1.16-4.64a10.79,10.79,0,0,0-.77-4.79M126.63,80a5.78,5.78,0,0,1-4,1.45,6,6,0,0,1-4.53-1.91,8.6,8.6,0,0,1-1.91-6c0-4.79,2.42-7.73,6.35-7.73a5.84,5.84,0,0,1,5,2.46A9.2,9.2,0,0,1,129,73.84c0,2.9-.7,4.72-2.32,6.13"/><path class="cls-2" d="M145.54,81.14l-.93-11.06c-.07-1-.11-2.57-.11-2.57s-.33,1.38-.63,2.37l-3.42,11.26h-1.62l-3.16-10.71c-.51-1.69-.79-2.94-.79-2.94s-.12,2-.19,2.92l-.88,10.73H132l1.4-15.08h2.78l2.91,9.84a23.82,23.82,0,0,1,.63,2.64,24.74,24.74,0,0,1,.58-2.46l3-10h2.81l1.37,15.08Z"/><path class="cls-2" d="M160.37,69.31a3.77,3.77,0,0,0-3.55-2.06A3.87,3.87,0,0,0,153.4,69a8.33,8.33,0,0,0-.81,4.16,11,11,0,0,0,1,5.25A4.22,4.22,0,0,0,157,80a3.64,3.64,0,0,0,3-1.3c.79-.95,1.16-2.15,1.16-4.64a10.79,10.79,0,0,0-.77-4.79M161,80a5.74,5.74,0,0,1-4,1.45,6,6,0,0,1-4.53-1.91,8.6,8.6,0,0,1-1.91-6c0-4.79,2.42-7.73,6.35-7.73a5.84,5.84,0,0,1,5,2.46,9.2,9.2,0,0,1,1.44,5.58c0,2.9-.7,4.72-2.33,6.13"/><path class="cls-2" d="M176.13,80.23A6.23,6.23,0,0,1,172,81.4c-2.47,0-3.86-.68-4.72-2.18a4.85,4.85,0,0,1-.47-2.35V66.06h1.89V76.21a6.86,6.86,0,0,0,.27,2.18c.31.66,1.17,1.47,3.12,1.47a3.56,3.56,0,0,0,2.81-.94,3.38,3.38,0,0,0,.61-2.36V66.06h1.88V76.78c0,1.83-.26,2.69-1.21,3.45"/><path class="cls-2" d="M187.38,81.38a6.34,6.34,0,0,1-4.65-2,8.25,8.25,0,0,1-1.91-5.74c0-4.48,2.84-7.78,6.7-7.78a6.82,6.82,0,0,1,4,1.23l-1,1.17a5,5,0,0,0-3-1,4.05,4.05,0,0,0-3.92,2.59,9.26,9.26,0,0,0-.68,4,7.59,7.59,0,0,0,.51,3.19,4.51,4.51,0,0,0,4.28,2.81,5.23,5.23,0,0,0,3.12-1l1,1.21a8.57,8.57,0,0,1-4.44,1.23"/><path class="cls-2" d="M310.93,38.08h.48c.57,0,.86.25.86.75a.78.78,0,0,1-.23.59.92.92,0,0,1-.62.2h-.49Zm1.45-.11a1.53,1.53,0,0,0-1-.27h-.92v3.83h.44V40h.73l.92,1.56h.52l-1-1.71a1.08,1.08,0,0,0,.48-.41,1,1,0,0,0,.17-.61,1,1,0,0,0-.34-.83m-3.68,3.26a3.29,3.29,0,0,0,4.52,1.21,3.29,3.29,0,0,0,1.19-1.21,3.29,3.29,0,0,0,0-3.25,3.14,3.14,0,0,0-1.2-1.2,3.28,3.28,0,0,0-3.28,0,3.24,3.24,0,0,0-1.2,1.21,3.21,3.21,0,0,0-.43,1.63,3.25,3.25,0,0,0,.42,1.61m.37-3a2.89,2.89,0,0,1,1.05-1.06,2.8,2.8,0,0,1,1.43-.39,2.87,2.87,0,0,1,2.87,2.88,2.9,2.9,0,0,1-.38,1.44,2.83,2.83,0,0,1-1.05,1,2.84,2.84,0,0,1-2.87,0,2.94,2.94,0,0,1-1.05-1.05,2.82,2.82,0,0,1,0-2.86"/></svg>